<svg width="425" height="650" viewBox="0 0 425 650" fill="none" xmlns="http://www.w3.org/2000/svg">
<g clip-path="url(#clip0_1_3)">
<path d="M283.667 4.27049L268.328 26.5135L293.076 40.6055L303.803 21.45C305.043 19.9536 305.933 18.2056 306.41 16.3309C306.886 14.4561 306.937 12.5007 306.56 10.6041C306.182 8.70755 305.385 6.91654 304.225 5.35883C303.065 3.80112 301.571 2.5151 299.85 1.59249C297.237 0.189971 294.223 -0.308372 291.29 0.177065C288.357 0.662503 285.673 2.10371 283.667 4.27049Z" fill="#FFC5C0"/>
<path d="M313.647 0.649998C314.104 0.945718 314.498 1.32756 314.806 1.77365C315.113 2.21974 315.329 2.72131 315.439 3.24964C315.55 3.77797 315.554 4.32266 315.451 4.85253C315.348 5.3824 315.14 5.88702 314.839 6.3375L305.279 20.4165C305.279 20.4165 301.662 27.0205 300.008 26.975L302.373 15.873L300.489 12.9025L307.868 1.8525C308.165 1.3967 308.551 1.00361 309.004 0.696009C309.456 0.388412 309.966 0.172428 310.503 0.0605751C311.041 -0.0512774 311.595 -0.0567736 312.135 0.0444052C312.674 0.145584 313.188 0.351425 313.647 0.649998Z" fill="#FFC5C0"/>
<path d="M271.972 21.2355L295.988 35.4055L292.154 41.7235L268.328 26.5135L271.972 21.2355Z" fill="#FF9198"/>
<path d="M266.503 22.5485L202.972 113.549L155.532 154.615C155.532 154.615 145.365 189.833 188.477 190.762L233.894 147.504C236.827 144.71 239.367 141.54 241.445 138.079L297.543 44.5965L266.503 22.5485Z" fill="#D9DBC5"/>
<path d="M149.42 194.648C139.462 184.824 139.462 168.897 149.42 159.073C159.378 149.249 175.524 149.249 185.482 159.073C195.44 168.897 195.44 184.824 185.482 194.648C175.524 204.471 159.378 204.471 149.42 194.648Z" fill="#D9DBC5"/>
<path d="M189.32 125.366C189.32 125.366 188.51 139.081 181.987 140.179V152.49C181.987 152.49 206.906 167.427 210.859 181.051L179.891 155.636L175.674 132.301L189.32 125.366Z" fill="#C7BC98"/>
<path d="M156.23 122.271L146.558 155.304C146.558 155.304 154.043 164.664 163.149 165.022C172.255 165.379 180.28 159.289 180.28 159.289L179.127 118.098C179.127 118.098 162.048 109.622 156.23 122.271Z" fill="#FFC5C0"/>
<path d="M179.891 145.535C179.891 145.535 176.281 145.49 168.44 140.179C168.44 140.179 174.37 133.166 179.687 138.262L179.891 145.535Z" fill="#FF9198"/>
<path d="M172.683 96.0375C172.683 96.0375 197.326 128.771 182.112 137.156C182.112 137.156 163.518 147.446 152.027 131.495L146.63 107.627C146.63 107.627 152.053 91.338 172.683 96.0375Z" fill="#FFC5C0"/>
<path d="M177.717 103.532C177.717 103.532 169.415 108.504 163.88 107.926L174.798 99.45C175.946 100.68 176.927 102.052 177.717 103.532Z" fill="#FF9198"/>
<path d="M166.055 132.048C166.055 132.048 165.962 142.292 163.867 142.844C163.867 142.844 172.499 152.34 172.709 163.3L163.116 165.022L152.91 141.947L166.055 132.048Z" fill="#FF9198"/>
<path d="M161.811 114.302L160.935 108.621C160.935 108.621 187.666 103.863 179.7 87.412C179.7 87.412 174.284 74.269 162.641 81.8675C162.641 81.8675 157.706 87.217 158.148 89.2255C158.148 89.2255 144.752 89.6805 149.365 101.575C149.365 101.575 134.21 103.85 152.369 134.842C152.369 134.842 158.616 130.169 160.816 117.942C161.034 116.681 161.653 115.544 161.811 114.302Z" fill="#1E1E3C"/>
<path d="M161.811 114.303C161.811 114.303 171.807 128.486 161.811 143.397C161.811 143.397 181.183 161.863 163.9 175.156C163.9 175.156 142.104 194.597 129.637 175.156C129.637 175.156 108.408 165.958 120.538 153.205C120.538 153.205 102.952 131.755 125.085 123.403C125.085 123.403 120.538 87.802 149.174 93.717C171.023 98.2215 161.811 114.303 161.811 114.303Z" fill="#1E1E3C"/>
<path d="M158.932 125.365C155.624 125.365 152.943 122.72 152.943 119.457C152.943 116.194 155.624 113.549 158.932 113.549C162.24 113.549 164.921 116.194 164.921 119.457C164.921 122.72 162.24 125.365 158.932 125.365Z" fill="#FFC5C0"/>
<path d="M162.668 126.581C161.482 126.581 160.52 125.632 160.52 124.462C160.52 123.292 161.482 122.343 162.668 122.343C163.854 122.343 164.816 123.292 164.816 124.462C164.816 125.632 163.854 126.581 162.668 126.581Z" fill="#F2CB4E"/>
<path d="M144.561 292.936H195.441C198.733 292.935 201.989 293.616 204.998 294.934C208.006 296.252 210.702 298.177 212.909 300.586C215.117 302.995 216.789 305.834 217.816 308.92C218.842 312.005 219.202 315.269 218.872 318.5L190.954 620.828H110.978" fill="#685B2F"/>
<path d="M70.4754 614.653L7.12267 595.192L99.3152 305.89C100.87 301 104.021 296.754 108.277 293.815C112.533 290.876 117.654 289.408 122.844 289.64L195.797 292.922L70.4754 614.653Z" fill="#685B2F"/>
<path d="M110.978 289.627L127.351 171.483C127.63 166.919 129.665 162.632 133.04 159.498C136.415 156.365 140.875 154.62 145.51 154.622H192.951C195.399 154.622 197.822 155.109 200.075 156.055C202.328 157.001 204.364 158.386 206.062 160.127C207.759 161.867 209.083 163.928 209.954 166.185C210.824 168.443 211.224 170.85 211.13 173.264L207.255 294.73C207.255 294.73 170.179 346.775 110.978 289.627Z" fill="#D9DBC5"/>
<path d="M195.705 244.816C199.742 247.19 204.375 248.397 209.074 248.3V238.836C209.074 238.836 199.322 242.378 195.705 244.816Z" fill="#C7BC98"/>
<path d="M195.731 244.809C182.522 244.809 171.813 234.246 171.813 221.214C171.813 208.183 182.522 197.619 195.731 197.619C208.941 197.619 219.649 208.183 219.649 221.214C219.649 234.246 208.941 244.809 195.731 244.809Z" fill="#D9DBC5"/>
<path d="M380.142 199.205L363.519 219.947C361.732 222.175 359.517 224.033 356.999 225.413C354.482 226.793 351.713 227.668 348.852 227.987L334.191 229.625L334.099 199.205H380.142Z" fill="#FFC5C0"/>
<path d="M340.174 199.205L341.307 228.8L334.191 229.625L334.099 199.205H340.174Z" fill="#FF9198"/>
<path d="M380.142 199.205H335.773V203.287H376.868L380.142 199.205Z" fill="#FF9198"/>
<path d="M335.773 198.165L236.036 197.314L176.458 158.814C176.458 158.814 140.371 167.395 160.75 204.88L221.27 240.571C225.164 241.725 229.197 242.357 233.262 242.45L334.297 235.671L335.773 198.165Z" fill="#D9DBC5"/>
<path d="M137.356 182.986C135.682 169.192 145.659 156.671 159.642 155.018C173.625 153.366 186.318 163.209 187.993 177.003C189.668 190.798 179.69 203.319 165.707 204.971C151.724 206.624 139.031 196.781 137.356 182.986Z" fill="#D9DBC5"/>
<path d="M270.522 197.684L272.038 201.779L326.476 203.287L326.673 198.165L270.522 197.684Z" fill="#C7BC98"/>
<path d="M326.673 190.905H425V122.187C425 121.304 424.645 120.458 424.012 119.834C423.379 119.21 422.521 118.859 421.626 118.859L330.047 118.859C329.152 118.859 328.294 119.21 327.661 119.834C327.029 120.458 326.673 121.304 326.673 122.187V190.905Z" fill="#DDDDED"/>
<path d="M275.846 199.205L422.971 199.205C423.507 199.205 424.022 198.995 424.401 198.621C424.78 198.247 424.993 197.739 424.993 197.21V190.905L273.823 190.905V197.21C273.823 197.739 274.036 198.247 274.416 198.621C274.795 198.995 275.31 199.205 275.846 199.205Z" fill="#ADADD8"/>
<path d="M327.332 199.205H422.971C423.507 199.205 424.022 198.995 424.401 198.621C424.78 198.247 424.993 197.739 424.993 197.21V190.905H326.673V198.542C326.671 198.629 326.687 198.715 326.72 198.795C326.752 198.876 326.8 198.949 326.861 199.011C326.923 199.072 326.996 199.121 327.077 199.155C327.158 199.188 327.244 199.206 327.332 199.205Z" fill="#C7C7E2"/>
<path d="M375.84 167.979C368.959 167.979 363.38 162.476 363.38 155.688C363.38 148.9 368.959 143.396 375.84 143.396C382.721 143.396 388.3 148.9 388.3 155.688C388.3 162.476 382.721 167.979 375.84 167.979Z" fill="#C7C7E2"/>
<path d="M211.637 238.836L159.841 202.676C158.043 203.171 156.162 203.299 154.312 203.053C152.462 202.808 150.683 202.193 149.081 201.246C143.085 197.691 161.508 195.052 161.508 195.052L216.091 232.889C216.091 232.889 213.89 237.075 211.637 238.836Z" fill="#C7BC98"/>
<path d="M163.854 620.354L206.241 649.89L126.455 648.927L126.804 620.802L163.854 620.354Z" fill="#0A2255"/>
<path d="M39.4612 605.124L42.5514 627.601L67.0557 649.89L30.8165 650L-2.28882e-05 622.551L13.2965 595.725L39.4612 605.124Z" fill="#0A2255"/>
<path d="M126.455 470.951L132.701 373.594L118.146 456.872V492.284L126.455 470.951Z" fill="#29293F"/>
</g>
<defs>
<clipPath id="clip0_1_3">
<rect width="425" height="650" fill="white" transform="matrix(-1 0 0 1 425 0)"/>
</clipPath>
</defs>
</svg>
